<?xml version="1.0"?><svg width="1440" height="1440" xmlns="http://www.w3.org/2000/svg">
 <title>grey &amp; Black Birdie</title>
 <g>
  <title>Layer 1</title>
  <g id="svg_99">
   <path d="m1194.150024,363.933014l130.799927,-89.268005l-186.529907,-54.611008c-155.794067,-273.759003 -473.722046,-130.994804 -579.987061,129.373001c-128.198975,313.828003 -495.385983,428.309998 -495.385983,428.309998c261.334988,310.823059 497.031979,366.952942 654.237972,354.563049c157.288025,-12.470093 581.794983,-136.116028 493.424988,-687.953064c-4.589966,-28.69397 -10.169922,-55.399994 -16.559937,-80.413971z" fill="#ff7f00" id="svg_100"/>
   <g id="svg_101">
    <path d="m1138.420044,220.059998c22.26001,39.131012 41.179932,86.850006 55.72998,143.878998l130.799927,-89.268982l-186.529907,-54.610016z" fill="#000000" id="svg_102"/>
    <path d="m930.481018,566.58197c0,0 -436.345032,-89.970978 -486.372009,152.817017c-50.02002,242.757996 352.841003,383.651062 486.372009,-152.817017z" fill="#000000" id="svg_103"/>
    <path d="m1014.450012,213.311005c2.909973,26.033997 -10.5,48.971008 -30.025024,51.242004c-19.597961,2.194977 -37.873962,-17.167007 -40.776001,-43.160004c-2.97998,-26.033005 10.436035,-48.970001 30.03302,-51.241013c19.604004,-2.123993 37.787964,17.131012 40.768005,43.159012z" fill="#000000" id="svg_104"/>
   </g>
  </g>
 </g>
</svg>